HIERARCHY
ROOT Hips
{
	OFFSET 0.000000 0.000000 0.000000
	CHANNELS 6 Xposition Yposition Zposition Zrotation Yrotation Xrotation 
	JOINT LHipJoint
	{
		OFFSET 0.000000 0.000000 0.000000
		CHANNELS 3 Zrotation Yrotation Xrotation
		JOINT LeftUpLeg
		{
			OFFSET 1.363060 -1.794630 0.839290
			CHANNELS 3 Zrotation Yrotation Xrotation
			JOINT LeftLeg
			{
				OFFSET 2.448110 -6.726130 0.000000
				CHANNELS 3 Zrotation Yrotation Xrotation
				JOINT LeftFoot
				{
					OFFSET 2.562200 -7.039590 0.000000
					CHANNELS 3 Zrotation Yrotation Xrotation
					JOINT LeftToeBase
					{
						OFFSET 0.157640 -0.433110 2.322550
						CHANNELS 3 Zrotation Yrotation Xrotation
						End Site
						{
							OFFSET 0.000000 0.000000 0.000000
						}
					}
				}
			}
		}
	}
	JOINT RHipJoint
	{
		OFFSET 0.000000 0.000000 0.000000
		CHANNELS 3 Zrotation Yrotation Xrotation
		JOINT RightUpLeg
		{
			OFFSET -1.305520 -1.794630 0.839290
			CHANNELS 3 Zrotation Yrotation Xrotation
			JOINT RightLeg
			{
				OFFSET -2.542530 -6.985550 0.000000
				CHANNELS 3 Zrotation Yrotation Xrotation
				JOINT RightFoot
				{
					OFFSET -2.568260 -7.056230 0.000000
					CHANNELS 3 Zrotation Yrotation Xrotation
					JOINT RightToeBase
					{
						OFFSET -0.164730 -0.452590 2.363150
						CHANNELS 3 Zrotation Yrotation Xrotation
						End Site
						{
							OFFSET 0.000000 0.000000 0.000000
						}
					}
				}
			}
		}
	}
}
MOTION
Frames: 25
Frame Time: 0.008333
18.424549 16.721691 1.233094 139.597219 -87.865634 -87.140108 -8.683429 -0.788314 3.131949 -9.178585 -7.164091 -61.201737 -3.083250 -1.395000 14.192779 3.159508 11.947760 -10.021879 0.535100 -0.000001 -36.287200 8.352950 0.388574 4.851881 3.344228 7.569842 -61.571021 2.670805 1.140337 13.310456 -3.240253 -9.885826 -9.793180 -1.086900 0.000000 -58.236500
18.397766 16.650888 1.234619 136.964424 -87.917101 -83.805768 -8.613973 -0.756054 3.292105 -8.919849 -7.747999 -63.226853 -3.027784 -1.133994 16.719329 3.335705 12.082895 -11.283292 0.257101 0.000000 -36.094501 8.331304 0.391233 5.020729 2.935670 7.995573 -63.754561 2.555277 0.796474 16.200260 -3.466664 -10.144732 -11.175714 -0.832100 0.000000 -57.665301
18.370416 16.572735 1.236420 134.173837 -87.969525 -80.355414 -8.550540 -0.727862 3.445828 -8.650794 -8.309794 -65.289004 -2.956545 -0.844753 19.407780 3.516258 12.225912 -12.582250 -0.040200 -0.000000 -35.936200 8.311436 0.405811 5.181912 2.500884 8.421763 -65.956229 2.412447 0.428762 19.255193 -3.706666 -10.457972 -12.585309 -0.556600 -0.000001 -57.078200
18.342700 16.486886 1.238502 131.156186 -88.025483 -76.726321 -8.493572 -0.706646 3.592349 -8.366346 -8.848280 -67.371704 -2.865894 -0.529940 22.247435 3.700413 12.385268 -13.908693 -0.355600 -0.000000 -35.807600 8.293678 0.435086 5.332150 2.049066 8.840401 -68.151575 2.243069 0.043587 22.451794 -3.957112 -10.823826 -14.018287 -0.256299 0.000000 -56.452199
18.314630 16.393273 1.240865 127.800040 -88.086734 -72.819269 -8.442512 -0.695074 3.731110 -8.062059 -9.362795 -69.455710 -2.752828 -0.193543 25.224296 3.886860 12.567270 -15.253601 -0.688600 -0.000000 -35.700500 8.278589 0.481715 5.468138 1.591699 9.242242 -70.314369 2.049722 -0.352429 25.765478 -4.213882 -11.236605 -15.474870 0.073400 0.000000 -55.760200
18.286022 16.291836 1.243487 123.972177 -88.153919 -68.506021 -8.396566 -0.694704 3.862089 -7.735543 -9.853217 -71.520964 -2.615584 0.158785 28.319485 4.073850 12.775818 -16.609614 -1.039201 0.000000 -35.604200 8.267438 0.547790 5.587442 1.141358 9.617742 -72.420261 1.837014 -0.752588 29.169541 -4.471701 -11.685794 -16.957477 0.437500 -0.000001 -54.978200
18.256750 16.182789 1.246316 119.526351 -88.225878 -63.648438 -8.354049 -0.705923 3.985318 -7.386519 -10.320037 -73.546136 -2.453728 0.520474 31.510101 4.259272 13.012421 -17.970820 -1.407701 -0.000000 -35.506900 8.262058 0.635461 5.687717 0.710794 9.957046 -74.445033 1.610590 -1.151071 32.636615 -4.724938 -12.159422 -18.468081 0.839600 0.000000 -54.089400
18.226513 16.066488 1.249326 114.346239 -88.298964 -58.134195 -8.313598 -0.727449 4.101307 -7.018092 -10.764357 -75.510628 -2.268395 0.884462 34.769412 4.440954 13.276771 -19.332532 -1.794600 0.000000 -35.400200 8.264393 0.746382 5.767727 0.311180 10.251348 -76.368476 1.376680 -1.543052 36.138976 -4.967756 -12.643873 -20.006340 1.281400 0.000000 -53.091901
18.182719 15.930844 1.276267 77.924539 -88.858899 -21.100187 -8.215598 -0.530967 4.592861 -5.634217 -11.642332 -78.270503 -1.898193 1.202818 38.156484 4.648834 13.638399 -20.476869 -2.105300 0.000000 -35.618600 8.349384 0.993328 5.851945 0.677602 10.401334 -78.433962 1.291795 -1.941520 39.509409 -5.240932 -13.184560 -21.664876 1.792200 0.000000 -51.781700
18.150290 15.802096 1.279383 72.747071 -88.839193 -15.751700 -8.207840 -0.549397 4.699777 -5.263508 -12.016645 -80.057001 -1.677123 1.554811 41.444994 4.815808 13.953688 -21.824633 -2.525800 0.000000 -35.505300 8.341521 1.168850 5.884120 0.345603 10.603308 -80.108380 1.053197 -2.309544 43.018697 -5.448824 -13.644347 -23.239357 2.311400 -0.000000 -50.628800
18.116599 15.668665 1.282416 68.016098 -88.779767 -10.933610 -8.210396 -0.583973 4.801047 -4.909899 -12.388650 -81.719494 -1.445392 1.891207 44.711053 4.973090 14.289768 -23.161120 -2.963900 0.000000 -35.380700 8.336139 1.352773 5.897318 0.054730 10.728588 -81.641558 0.818389 -2.662358 46.479894 -5.635009 -14.088017 -24.809743 2.856600 0.000000 -49.474800
18.081225 15.531719 1.285412 63.925884 -88.674595 -6.835008 -8.219930 -0.635040 4.896225 -4.583666 -12.764708 -83.244066 -1.207377 2.207086 47.926123 5.120158 14.644766 -24.480109 -3.418400 -0.000000 -35.260200 8.337750 1.538775 5.893901 -0.192904 10.771910 -83.027425 0.589455 -3.000253 49.865768 -5.798084 -14.513239 -26.354865 3.417700 0.000000 -48.390200
18.044245 15.392648 1.288307 60.582918 -88.521887 -3.560802 -8.232336 -0.701341 4.984499 -4.295474 -13.148770 -84.618009 -0.967041 2.498998 51.064162 5.257357 15.018873 -25.773754 -3.887100 -0.000000 -35.162500 8.351041 1.721472 5.876561 -0.396747 10.732353 -84.261186 0.367126 -3.323895 53.151457 -5.937933 -14.921016 -27.850709 3.983300 -0.000000 -47.447500
18.005632 15.252887 1.291119 57.986275 -88.324433 -1.106713 -8.244497 -0.779921 5.065203 -4.054318 -13.540717 -85.831621 -0.727897 2.765184 54.102238 5.385432 15.412934 -27.032922 -4.367600 -0.000000 -35.108400 8.379684 1.896788 5.847960 -0.557482 10.613190 -85.338554 0.151310 -3.633351 56.313842 -6.055381 -15.313890 -29.273069 4.542600 -0.000000 -46.714601
17.965479 15.113924 1.293856 56.055404 -88.092856 0.613364 -8.254404 -0.865655 5.137379 -3.865992 -13.936553 -86.884296 -0.492652 3.006037 57.021955 5.505429 15.828352 -28.247140 -4.856800 -0.000001 -35.119300 8.425226 2.063752 5.809905 -0.676982 10.423850 -86.261163 -0.058407 -3.927911 59.332918 -6.152337 -15.695207 -30.601823 5.086300 0.000000 -46.241999
17.923653 14.977092 1.296549 54.684523 -87.833864 1.709798 -8.262824 -0.956238 5.200220 -3.736628 -14.330131 -87.771328 -0.263705 3.222676 59.809350 5.617881 16.265361 -29.405320 -5.351200 0.000000 -35.211700 8.486901 2.218612 5.764363 -0.757780 10.173862 -87.026600 -0.262783 -4.206502 62.193177 -6.231312 -16.069028 -31.823256 5.607700 0.000000 -46.056800
17.880586 14.843840 1.299226 53.744139 -87.558264 2.313175 -8.271023 -1.048811 5.252198 -3.668859 -14.711780 -88.492382 -0.042840 3.417317 62.454144 5.722853 16.722227 -30.497110 -5.846600 -0.000000 -35.395900 8.562374 2.359644 5.711890 -0.801601 9.876105 -87.634293 -0.461901 -4.467589 64.881432 -6.295306 -16.438672 -32.931706 6.103600 0.000000 -46.158100
17.836181 14.715317 1.301837 53.129096 -87.275759 2.532969 -8.281104 -1.141551 5.292050 -3.663367 -15.070655 -89.048890 0.168361 3.592466 64.949994 5.819657 17.193485 -31.514023 -6.338000 0.000000 -35.676001 8.648736 2.484676 5.653036 -0.810388 9.543937 -88.084957 -0.655288 -4.709693 67.389415 -6.347286 -16.805510 -33.930792 6.573600 0.000000 -46.518401
17.790885 14.592564 1.304425 52.732718 -86.996625 2.478468 -8.295523 -1.232721 5.318947 -3.717650 -15.394145 -89.444663 0.368678 3.751019 67.294612 5.906875 17.669839 -32.450204 -6.819800 0.000000 -36.047200 8.742582 2.592218 5.588137 -0.784672 9.191679 -88.379537 -0.841743 -4.931405 69.712771 -6.390255 -17.169694 -34.832552 7.020200 -0.000000 -47.084700
17.744839 14.476425 1.306885 52.480129 -86.729871 2.226171 -8.316373 -1.321071 5.332436 -3.827218 -15.670478 -89.685145 0.556979 3.895695 69.488141 5.982551 18.138028 -33.303570 -7.285300 -0.000000 -36.498500 8.840783 2.681059 5.517657 -0.725353 8.832794 -88.520442 -1.019543 -5.131791 71.850911 -6.426848 -17.529349 -35.655633 7.448100 -0.000000 -47.788200
17.697954 14.367451 1.309136 52.313635 -86.484036 1.838535 -8.345617 -1.404957 5.333429 -3.984828 -15.888956 -89.778385 0.732303 4.028949 71.533428 6.044536 18.581814 -34.076468 -7.727700 0.000000 -37.014300 8.940866 2.750506 5.442950 -0.633479 8.479464 -88.512307 -1.186604 -5.310347 73.807182 -6.459118 -17.880253 -36.422505 7.862400 -0.000000 -48.550900
17.650496 14.266103 1.311067 52.193222 -86.265775 1.359789 -8.384465 -1.483121 5.323340 -4.180689 -16.041675 -89.735269 0.893954 4.152818 73.434756 6.090811 18.984089 -34.774083 -8.140000 0.000000 -37.579300 9.040780 2.800405 5.365594 -0.510696 8.142267 -88.362859 -1.340844 -5.467169 75.587172 -6.488583 -18.217056 -37.155361 8.267800 -0.000000 -49.300200
17.602247 14.172594 1.312482 52.117776 -86.083686 0.799610 -8.432939 -1.552329 5.302905 -4.405014 -16.122777 -89.568364 1.041103 4.269353 75.195882 6.119818 19.328015 -35.405069 -8.516100 0.000000 -38.172000 9.139397 2.834131 5.286612 -0.362086 7.830114 -88.081990 -1.480474 -5.602500 77.199071 -6.515716 -18.532748 -37.872863 8.667100 0.000000 -49.972201
17.553077 14.087078 1.313291 52.072670 -85.939559 0.179681 -8.490962 -1.612051 5.276092 -4.643963 -16.133597 -89.293949 1.173740 4.379084 76.821780 6.130892 19.600519 -35.977819 -8.850500 -0.000000 -38.785500 9.235897 2.851602 5.209502 -0.192318 7.548121 -87.685327 -1.604392 -5.717510 78.651539 -6.540582 -18.820683 -38.584954 9.060000 0.000000 -50.535300
17.502856 14.009461 1.313338 52.076053 -85.829303 -0.508398 -8.558339 -1.662470 5.249597 -4.885848 -16.081684 -88.925436 1.291693 4.481082 78.314999 6.124525 19.793426 -36.501122 -9.140200 0.000000 -39.411900 9.330628 2.850431 5.140629 -0.009223 7.297464 -87.188522 -1.712367 -5.813300 79.952727 -6.562714 -19.074941 -39.293236 9.442900 0.000000 -50.980900
